:version 1.10
:name ASF
:units
  mass 1
  length 1
  angle deg
:documentation
  ASF file generated by Kaydara
:root
  axis xyz
  order  tx ty tz rx ry rz
  position 0 0 0
  orientation 0 0 0
:bonedata
  begin
    id 1
    name RightUpLegDummy
    direction -0.65628 -0.754516 0.00165102
    length 4.76918
    axis 0 0 0 xyz
  end
  begin
    id 2
    name RightUpLeg
    direction -0.145584 -0.923362 0.355256
    length 17.9961
    axis -24.7611 -13.1006 1.78531 xyz
    dof rx ry rz
  end
  begin
    id 3
    name RightLeg
    direction 0.263379 0.172355 -0.949171
    length 13.3386
    axis 89.6202 -21.1929 12.3855 xyz
    dof rx ry rz
  end
  begin
    id 4
    name RightFoot
    direction 0.224283 -0.968777 -0.105675
    length 5.86697
    axis 56.995 -39.6905 17.3365 xyz
    dof rx ry rz
  end
  begin
    id 5
    name RightToes
    direction -0.0806345 -0.9037 0.420506
    length 4.75197
    axis 146.825 -39.7828 17.6019 xyz
    dof rx ry rz
  end
  begin
    id 6
    name SpineDummy
    direction -3.39852e-014 1 9.33296e-014
    length 8.13779
    axis 0 0 0 xyz
  end
  begin
    id 7
    name Spine
    direction -0.156609 0.733703 0.661176
    length 7.14978
    axis 41.2365 5.68757 17.0844 xyz
    dof rx ry rz
  end
  begin
    id 8
    name Spine1
    direction 0 0 0
    length 0
    axis 42.8809 47.8308 -3.36039 xyz
    dof rx ry rz
  end
  begin
    id 9
    name HEadDummy
    direction 0.546431 0.701947 0.456819
    length 3.55512
    axis 42.8809 47.8308 -3.36039 xyz
  end
  begin
    id 10
    name HEad
    direction 0.23444 0.828559 0.508457
    length 7.35827
    axis 51.1864 49.2662 27.4903 xyz
    dof rx ry rz
  end
  begin
    id 11
    name LeftShoulder1Dummy
    direction 0.431183 0.475873 -0.766568
    length 2.49352
    axis 42.8809 47.8308 -3.36039 xyz
  end
  begin
    id 12
    name LeftShoulder1
    direction 0.268187 -0.383402 -0.883786
    length 4.48604
    axis -119.517 0.106469 35.1736 xyz
    dof rx ry rz
  end
  begin
    id 13
    name LeftArm
    direction 0.380567 -0.703221 -0.600541
    length 10.1142
    axis -5.41825 36.2925 7.8293 xyz
    dof rx ry rz
  end
  begin
    id 14
    name LeftForeArm
    direction 0.541071 -0.732356 -0.413396
    length 9.39839
    axis 4.65387 33.7604 7.81644 xyz
    dof rx ry rz
  end
  begin
    id 15
    name LeftHand
    direction 0.847511 -0.389379 -0.360707
    length 3.66142
    axis 7.65593 21.1436 -24.6758 xyz
    dof rx ry rz
  end
  begin
    id 16
    name RightShoulderDummy
    direction -0.692546 0.541855 0.476208
    length 2.49352
    axis 42.8809 47.8308 -3.36039 xyz
  end
  begin
    id 17
    name RightShoulder
    direction -0.870808 -0.316653 0.376065
    length 4.48602
    axis 141.571 51.133 -100.254 xyz
    dof rx ry rz
  end
  begin
    id 18
    name RightArm
    direction 0.366897 -0.87275 0.322015
    length 10.1142
    axis 92.3258 71.2036 138.917 xyz
    dof rx ry rz
  end
  begin
    id 19
    name RightForeArm
    direction 0.702487 -0.694568 0.155197
    length 9.39835
    axis 153.863 41.5092 -176.604 xyz
    dof rx ry rz
  end
  begin
    id 20
    name RightHand
    direction 0.79502 -0.601276 0.0800636
    length 3.66142
    axis 154.247 4.59222 142.9 xyz
    dof rx ry rz
  end
  begin
    id 21
    name LeftUpLegDummy
    direction 0.65628 -0.754516 0.00165102
    length 4.76919
    axis 0 0 0 xyz
  end
  begin
    id 22
    name LeftUpLeg
    direction -0.1277 -0.689368 0.713067
    length 17.9961
    axis -48.3385 -17.8675 0.791927 xyz
    dof rx ry rz
  end
  begin
    id 23
    name LeftLeg
    direction 0.109849 -0.991246 -0.0732378
    length 13.3386
    axis -2.05791 -7.30784 1.72042 xyz
    dof rx ry rz
  end
  begin
    id 24
    name LeftFoot
    direction 0.0448355 -0.272614 0.961078
    length 5.86697
    axis -18.7733 -7.89606 10.2113 xyz
    dof rx ry rz
  end
  begin
    id 25
    name LeftToes
    direction -0.18506 0.293668 0.937823
    length 4.75197
    axis 71.2267 -7.89606 10.2113 xyz
    dof rx ry rz
  end
:hierarchy
  begin
    root RightUpLegDummy SpineDummy LeftUpLegDummy
    RightUpLegDummy RightUpLeg
    RightUpLeg RightLeg
    RightLeg RightFoot
    RightFoot RightToes
    SpineDummy Spine
    Spine Spine1
    Spine1 HEadDummy LeftShoulder1Dummy RightShoulderDummy
    HEadDummy HEad
    LeftShoulder1Dummy LeftShoulder1
    LeftShoulder1 LeftArm
    LeftArm LeftForeArm
    LeftForeArm LeftHand
    RightShoulderDummy RightShoulder
    RightShoulder RightArm
    RightArm RightForeArm
    RightForeArm RightHand
    LeftUpLegDummy LeftUpLeg
    LeftUpLeg LeftLeg
    LeftLeg LeftFoot
    LeftFoot LeftToes
  end

:SAMPLES-PER-SECOND 30
:FULLY-SPECIFIED
:DEGREES
487
root  -5.11034 37.4442 50.604 172.7 -7.05454 172.688
RightUpLeg  -4.43254 14.6197 5.84844
RightLeg  -105.96 -8.13292 2.37257
RightFoot  32.7035 1.87604 -14.0577
RightToes  -1.27222e-014 -6.36111e-015 6.36111e-015
Spine  -26.6142 -30.4746 -24.6833
Spine1  7.56838 -19.3293 64.4179
HEad  -9.20454 -3.47139 -16.1635
LeftShoulder1  6.36111e-015 -1.33558e-015 6.49777e-015
LeftArm  35.4283 -28.921 -53.6829
LeftForeArm  -15.8212 -48.8016 12.8788
LeftHand  -1.08932 -0.377334 -12.0629
RightShoulder  -4.77083e-015 -6.36111e-015 -3.18055e-015
RightArm  48.3463 -29.8799 -13.5801
RightForeArm  -22.319 13.3291 -23.5067
RightHand  -0.652149 3.03848 1.26811
LeftUpLeg  59.2692 25.4671 9.72448
LeftLeg  -10.2163 -13.542 -0.726609
LeftFoot  -14.7076 1.02345 -5.95238
LeftToes  9.54166e-015 4.2066e-011 -8.07781e-011
488
root  -5.45606 37.2225 49.2899 171.777 -9.1329 174.931
RightUpLeg  -3.83073 14.5246 8.98795
RightLeg  -99.8776 -10.4877 0.797618
RightFoot  33.0381 4.12599 -16.8463
RightToes  -1.27222e-014 -6.36111e-015 6.36111e-015
Spine  -25.8898 -28.7625 -20.0334
Spine1  6.12693 -20.1296 65.7806
HEad  -9.09623 -3.13465 -18.3368
LeftShoulder1  6.36111e-015 -1.33558e-015 6.49777e-015
LeftArm  29.49 -25.0036 -53.3558
LeftForeArm  -13.3021 -50.5459 12.5683
LeftHand  -1.17492 -0.686846 -12.071
RightShoulder  -4.77083e-015 -6.36111e-015 -3.18055e-015
RightArm  51.8723 -35.3426 -23.3233
RightForeArm  -20.3309 8.18217 -19.0136
RightHand  -0.127845 2.03097 -1.97293
LeftUpLeg  57.2589 23.3471 11.9179
LeftLeg  1.99961 -13.2761 -2.01808
LeftFoot  -10.0421 1.56643 -7.47278
LeftToes  9.54166e-015 4.2066e-011 -8.07781e-011
489
root  -5.78803 36.8472 47.9646 170.848 -11.2663 177.742
RightUpLeg  -4.11013 16.4401 12.4686
RightLeg  -92.4726 -12.1199 2.03527
RightFoot  34.729 6.09925 -19.4137
RightToes  -1.27222e-014 -6.36111e-015 6.36111e-015
Spine  -24.7258 -26.4447 -14.553
Spine1  3.70828 -20.5951 66.8443
HEad  -8.09378 -3.19563 -20.2484
LeftShoulder1  6.36111e-015 -1.33558e-015 6.49777e-015
LeftArm  24.5187 -19.751 -52.42
LeftForeArm  -20.156 -52.0124 17.4244
LeftHand  -1.30088 -1.30543 -11.4143
RightShoulder  -4.77083e-015 -6.36111e-015 -3.18055e-015
RightArm  57.7044 -39.7226 -35.4247
RightForeArm  -22.0204 -0.726362 -14.1885
RightHand  0.670915 0.736745 -6.41034
LeftUpLeg  51.7504 20.4866 13.2018
LeftLeg  17.2855 -10.2751 -2.69671
LeftFoot  1.96029 2.80746 -8.89055
LeftToes  9.54166e-015 4.2066e-011 -8.07781e-011
490
root  -6.08148 36.0998 46.77 170.074 -12.0827 179.662
RightUpLeg  -6.53957 16.2119 14.4562
RightLeg  -83.2407 -13.733 3.18346
RightFoot  34.685 7.16225 -20.6773
RightToes  -1.27222e-014 -6.36111e-015 6.36111e-015
Spine  -23.4902 -23.6178 -10.2333
Spine1  2.42328 -19.9078 67.8999
HEad  -7.68993 -4.07494 -21.9729
LeftShoulder1  6.36111e-015 -1.33558e-015 6.49777e-015
LeftArm  22.0794 -18.5305 -52.9159
LeftForeArm  -33.2552 -52.1848 25.4686
LeftHand  -1.31382 -1.59224 -10.3666
RightShoulder  -4.77083e-015 -6.36111e-015 -3.18055e-015
RightArm  65.4924 -41.244 -49.2647
RightForeArm  -27.3178 -9.61864 -10.1439
RightHand  1.27273 0.377912 -10.4165
LeftUpLeg  44.7338 18.7155 13.653
LeftLeg  31.2297 -5.83728 -0.856109
LeftFoot  13.9292 4.45609 -10.3466
LeftToes  9.54166e-015 4.2066e-011 -8.07781e-011
491
root  -6.33656 35.3521 45.6275 168.878 -10.6673 179.639
RightUpLeg  -8.08277 14.679 14.9901
RightLeg  -74.3479 -15.1121 3.07971
RightFoot  32.546 8.20178 -21.8179
RightToes  -1.27222e-014 -6.36111e-015 6.36111e-015
Spine  -22.7543 -20.9922 -8.81488
Spine1  4.31377 -18.4385 67.305
HEad  -9.21384 -5.65982 -23.0314
LeftShoulder1  6.36111e-015 -1.33558e-015 6.49777e-015
LeftArm  20.0398 -22.7174 -53.6114
LeftForeArm  -49.0058 -52.6947 36.9487
LeftHand  -1.18971 -1.33119 -9.65194
RightShoulder  -4.77083e-015 -6.36111e-015 -3.18055e-015
RightArm  72.0471 -40.0163 -60.8994
RightForeArm  -35.0876 -14.9327 -7.24195
RightHand  1.56878 0.350989 -12.611
LeftUpLeg  39.9149 20.0035 14.593
LeftLeg  41.3577 -1.39438 3.78924
LeftFoot  15.7397 4.98332 -11.0913
LeftToes  9.54166e-015 4.2066e-011 -8.07781e-011
492
root  -6.56026 35.0224 44.4776 167.189 -8.197 178.565
RightUpLeg  -6.67586 14.3307 15.2946
RightLeg  -68.1236 -15.483 1.9656
RightFoot  29.2229 9.31472 -23.121
RightToes  -1.27222e-014 -6.36111e-015 6.36111e-015
Spine  -23.0612 -19.4162 -9.28253
Spine1  8.79066 -17.4853 65.3857
HEad  -11.7321 -6.53551 -23.3875
LeftShoulder1  6.36111e-015 -1.33558e-015 6.49777e-015
LeftArm  16.5079 -28.7087 -52.3518
LeftForeArm  -65.9713 -52.0319 51.3403
LeftHand  -1.11788 -1.08584 -9.66897
RightShoulder  -4.77083e-015 -6.36111e-015 -3.18055e-015
RightArm  75.1698 -38.1421 -66.8326
RightForeArm  -42.1089 -14.5918 -6.87756
RightHand  1.75877 0.0947511 -13.4722
LeftUpLeg  37.5414 22.942 15.6038
LeftLeg  46.7575 1.05236 7.89835
LeftFoot  9.34431 3.66728 -9.51697
LeftToes  9.54166e-015 4.2066e-011 -8.07781e-011
